HIERARCHY
ROOT Hips
{
	OFFSET 0.000000 100.481300 0.000000
	CHANNELS 6 Xposition Yposition Zposition Xrotation Yrotation Zrotation 
	JOINT Spine
	{
		OFFSET -0.279200 12.230698 -2.892100
		CHANNELS 3 Xrotation Yrotation Zrotation
		JOINT Spine1
		{
			OFFSET -0.232667 10.192268 -1.242267
			CHANNELS 3 Xrotation Yrotation Zrotation
			JOINT Spine1_split
			{
				OFFSET -0.232667 10.192268 -1.242267
				CHANNELS 3 Xrotation Yrotation Zrotation
				JOINT Spine2
				{
					OFFSET -0.232667 10.192268 -1.242267
					CHANNELS 3 Xrotation Yrotation Zrotation
					JOINT Neck
					{
						OFFSET -0.418800 17.814194 8.416900
						CHANNELS 3 Xrotation Yrotation Zrotation
						JOINT Head
						{
							OFFSET 0.000000 7.031097 3.806800
							CHANNELS 3 Xrotation Yrotation Zrotation
							JOINT HeadTop_End
							{
								OFFSET 0.000000 24.646606 12.978600
								CHANNELS 3 Xrotation Yrotation Zrotation
								End Site
								{
									OFFSET 0.000000 0.000000 0.000000
								}
							}
						}
					}
					JOINT LeftShoulder
					{
						OFFSET 8.476499 7.247704 -3.868750
						CHANNELS 3 Xrotation Yrotation Zrotation
						JOINT LeftShoulder_split
						{
							OFFSET 8.476499 7.247704 -3.868750
							CHANNELS 3 Xrotation Yrotation Zrotation
							JOINT LeftArm
							{
								OFFSET 9.308998 -2.777710 0.208600
								CHANNELS 3 Xrotation Yrotation Zrotation
								JOINT LeftForeArm
								{
									OFFSET 29.972298 0.000000 0.000000
									CHANNELS 3 Xrotation Yrotation Zrotation
									JOINT LeftHand
									{
										OFFSET 26.026505 0.000000 0.000000
										CHANNELS 3 Xrotation Yrotation Zrotation
										JOINT LeftHandThumb1
										{
											OFFSET 12.240501 -7.147949 9.207150
											CHANNELS 3 Xrotation Yrotation Zrotation
											JOINT LeftHandThumb2
											{
												OFFSET 4.138618 -2.389435 2.389433
												CHANNELS 3 Xrotation Yrotation Zrotation
												JOINT LeftHandThumb3
												{
													OFFSET 2.726913 -1.574387 1.574386
													CHANNELS 3 Xrotation Yrotation Zrotation
													JOINT LeftHandThumb4
													{
														OFFSET 3.941010 -2.275345 2.275342
														CHANNELS 3 Xrotation Yrotation Zrotation
														End Site
														{
															OFFSET 0.000000 0.000000 0.000000
														}
													}
												}
											}
										}
										JOINT LeftHandIndex1
										{
											OFFSET 24.424698 -1.985611 5.953459
											CHANNELS 3 Xrotation Yrotation Zrotation
											JOINT LeftHandIndex2
											{
												OFFSET 6.426697 0.000000 0.000000
												CHANNELS 3 Xrotation Yrotation Zrotation
												JOINT LeftHandIndex3
												{
													OFFSET 5.337898 0.000000 0.000000
													CHANNELS 3 Xrotation Yrotation Zrotation
													JOINT LeftHandIndex4
													{
														OFFSET 4.409401 0.000000 0.000000
														CHANNELS 3 Xrotation Yrotation Zrotation
														End Site
														{
															OFFSET 0.000000 0.000000 0.000000
														}
													}
												}
											}
										}
										JOINT LeftHandMiddle1
										{
											OFFSET 23.810104 0.000000 0.000000
											CHANNELS 3 Xrotation Yrotation Zrotation
											JOINT LeftHandMiddle2
											{
												OFFSET 7.176498 0.000000 0.000000
												CHANNELS 3 Xrotation Yrotation Zrotation
												JOINT LeftHandMiddle3
												{
													OFFSET 6.774902 0.000000 0.000000
													CHANNELS 3 Xrotation Yrotation Zrotation
													JOINT LeftHandMiddle4
													{
														OFFSET 5.403328 0.000000 0.000000
														CHANNELS 3 Xrotation Yrotation Zrotation
														End Site
														{
															OFFSET 0.000000 0.000000 0.000000
														}
													}
												}
											}
										}
										JOINT LeftHandRing1
										{
											OFFSET 22.908401 -0.839279 -6.020567
											CHANNELS 3 Xrotation Yrotation Zrotation
											JOINT LeftHandRing2
											{
												OFFSET 6.337502 0.000000 0.000000
												CHANNELS 3 Xrotation Yrotation Zrotation
												JOINT LeftHandRing3
												{
													OFFSET 5.779297 0.000000 0.000000
													CHANNELS 3 Xrotation Yrotation Zrotation
													JOINT LeftHandRing4
													{
														OFFSET 4.965698 0.000000 0.000000
														CHANNELS 3 Xrotation Yrotation Zrotation
														End Site
														{
															OFFSET 0.000000 0.000000 0.000000
														}
													}
												}
											}
										}
										JOINT LeftHandPinky1
										{
											OFFSET 20.037003 -1.530319 -10.950146
											CHANNELS 3 Xrotation Yrotation Zrotation
											JOINT LeftHandPinky2
											{
												OFFSET 5.254700 0.000000 0.000000
												CHANNELS 3 Xrotation Yrotation Zrotation
												JOINT LeftHandPinky3
												{
													OFFSET 4.810204 0.000000 0.000000
													CHANNELS 3 Xrotation Yrotation Zrotation
													JOINT LeftHandPinky4
													{
														OFFSET 3.647202 0.000000 0.000000
														CHANNELS 3 Xrotation Yrotation Zrotation
														End Site
														{
															OFFSET 0.000000 0.000000 0.000000
														}
													}
												}
											}
										}
									}
								}
							}
						}
					}
					JOINT RightShoulder
					{
						OFFSET -7.570500 7.247704 -3.868750
						CHANNELS 3 Xrotation Yrotation Zrotation
						JOINT RightShoulder_split
						{
							OFFSET -7.570500 7.247704 -3.868750
							CHANNELS 3 Xrotation Yrotation Zrotation
							JOINT RightArm
							{
								OFFSET -9.308998 -2.777710 0.208500
								CHANNELS 3 Xrotation Yrotation Zrotation
								JOINT RightForeArm
								{
									OFFSET -29.972300 0.000000 0.000000
									CHANNELS 3 Xrotation Yrotation Zrotation
									JOINT RightHand
									{
										OFFSET -26.026505 0.000000 0.000000
										CHANNELS 3 Xrotation Yrotation Zrotation
										JOINT RightHandThumb1
										{
											OFFSET -12.240601 -7.148026 9.207092
											CHANNELS 3 Xrotation Yrotation Zrotation
											JOINT RightHandThumb2
											{
												OFFSET -4.138618 -2.389435 2.389433
												CHANNELS 3 Xrotation Yrotation Zrotation
												JOINT RightHandThumb3
												{
													OFFSET -2.726974 -1.574417 1.574421
													CHANNELS 3 Xrotation Yrotation Zrotation
													JOINT RightHandThumb4
													{
														OFFSET -3.941010 -2.275345 2.275343
														CHANNELS 3 Xrotation Yrotation Zrotation
														End Site
														{
															OFFSET 0.000000 0.000000 0.000000
														}
													}
												}
											}
										}
										JOINT RightHandIndex1
										{
											OFFSET -24.424698 -1.985657 5.953444
											CHANNELS 3 Xrotation Yrotation Zrotation
											JOINT RightHandIndex2
											{
												OFFSET -6.426697 0.000000 0.000000
												CHANNELS 3 Xrotation Yrotation Zrotation
												JOINT RightHandIndex3
												{
													OFFSET -5.337898 0.000000 0.000000
													CHANNELS 3 Xrotation Yrotation Zrotation
													JOINT RightHandIndex4
													{
														OFFSET -4.409401 0.000000 0.000000
														CHANNELS 3 Xrotation Yrotation Zrotation
														End Site
														{
															OFFSET 0.000000 0.000000 0.000000
														}
													}
												}
											}
										}
										JOINT RightHandMiddle1
										{
											OFFSET -23.810097 0.000000 0.000000
											CHANNELS 3 Xrotation Yrotation Zrotation
											JOINT RightHandMiddle2
											{
												OFFSET -7.176498 0.000000 0.000000
												CHANNELS 3 Xrotation Yrotation Zrotation
												JOINT RightHandMiddle3
												{
													OFFSET -6.774902 0.000000 0.000000
													CHANNELS 3 Xrotation Yrotation Zrotation
													JOINT RightHandMiddle4
													{
														OFFSET -5.403328 0.000000 0.000000
														CHANNELS 3 Xrotation Yrotation Zrotation
														End Site
														{
															OFFSET 0.000000 0.000000 0.000000
														}
													}
												}
											}
										}
										JOINT RightHandRing1
										{
											OFFSET -22.908302 -0.839325 -6.020576
											CHANNELS 3 Xrotation Yrotation Zrotation
											JOINT RightHandRing2
											{
												OFFSET -6.337502 0.000000 0.000000
												CHANNELS 3 Xrotation Yrotation Zrotation
												JOINT RightHandRing3
												{
													OFFSET -5.779297 0.000000 0.000000
													CHANNELS 3 Xrotation Yrotation Zrotation
													JOINT RightHandRing4
													{
														OFFSET -4.965698 0.000000 0.000000
														CHANNELS 3 Xrotation Yrotation Zrotation
														End Site
														{
															OFFSET 0.000000 0.000000 0.000000
														}
													}
												}
											}
										}
										JOINT RightHandPinky1
										{
											OFFSET -20.037003 -1.530334 -10.950259
											CHANNELS 3 Xrotation Yrotation Zrotation
											JOINT RightHandPinky2
											{
												OFFSET -5.254700 0.000000 0.000000
												CHANNELS 3 Xrotation Yrotation Zrotation
												JOINT RightHandPinky3
												{
													OFFSET -4.810204 0.000000 0.000000
													CHANNELS 3 Xrotation Yrotation Zrotation
													JOINT RightHandPinky4
													{
														OFFSET -3.647202 0.000000 0.000000
														CHANNELS 3 Xrotation Yrotation Zrotation
														End Site
														{
															OFFSET 0.000000 0.000000 0.000000
														}
													}
												}
											}
										}
									}
								}
							}
						}
					}
				}
			}
		}
	}
	JOINT LeftUpLeg
	{
		OFFSET 15.427100 -6.655098 0.678600
		CHANNELS 3 Xrotation Yrotation Zrotation
		JOINT LeftLeg
		{
			OFFSET 4.081073 -39.591068 13.024000
			CHANNELS 3 Xrotation Yrotation Zrotation
			JOINT LeftFoot
			{
				OFFSET -4.081074 -37.707932 -15.979700
				CHANNELS 3 Xrotation Yrotation Zrotation
				JOINT LeftToeBase
				{
					OFFSET 5.346399 -15.068900 20.645000
					CHANNELS 3 Xrotation Yrotation Zrotation
					JOINT LeftToe_End
					{
						OFFSET 2.754700 0.931300 11.300900
						CHANNELS 3 Xrotation Yrotation Zrotation
						End Site
						{
							OFFSET 0.000000 0.000000 0.000000
						}
					}
				}
			}
		}
	}
	JOINT RightUpLeg
	{
		OFFSET -15.569500 -6.655098 0.678600
		CHANNELS 3 Xrotation Yrotation Zrotation
		JOINT RightLeg
		{
			OFFSET -4.081825 -39.591045 13.023800
			CHANNELS 3 Xrotation Yrotation Zrotation
			JOINT RightFoot
			{
				OFFSET 4.081824 -37.707954 -15.979600
				CHANNELS 3 Xrotation Yrotation Zrotation
				JOINT RightToeBase
				{
					OFFSET -5.346400 -15.068900 20.645000
					CHANNELS 3 Xrotation Yrotation Zrotation
					JOINT RightToe_End
					{
						OFFSET -2.754700 0.931300 11.300900
						CHANNELS 3 Xrotation Yrotation Zrotation
						End Site
						{
							OFFSET 0.000000 0.000000 0.000000
						}
					}
				}
			}
		}
	}
}
MOTION
Frames: 4
Frame Time: 0.016667
0.369077 111.312950 4.619438 -90.677455 -2.006671 1.529401 0.644470 -0.184989 -0.604140 0.768331 0.010520 -0.441587 0.000000 0.000000 0.000000 0.794651 0.003108 -0.423897 -4.679082 4.214175 -8.229255 4.592466 8.465933 -14.419385 0.000000 -0.000000 0.000000 0.826375 -6.003513 -3.769292 0.000000 0.000000 0.000000 44.058149 -39.817062 -34.619579 0.000419 -83.309470 0.000392 -22.984425 -8.371316 7.116296 -1.945767 1.585337 13.204800 8.601849 21.114942 -0.258287 -4.250535 28.326762 20.005260 0.000002 -0.000001 -0.000000 0.776305 5.158033 -28.512490 0.566020 2.514179 -25.370932 0.306466 1.871743 -18.596433 -0.000001 -0.000003 -0.000001 0.776305 5.158035 -28.512486 0.566019 2.514181 -25.370934 0.084760 0.994024 -9.747970 0.000003 0.000001 -0.000002 0.776305 5.158033 -28.512486 0.351475 2.000425 -19.928002 0.131452 1.235362 -12.147802 -0.000002 0.000000 0.000001 0.776304 5.158030 -28.512486 0.064894 0.870544 -8.527013 0.131460 1.235373 -12.147807 -0.000001 0.000001 0.000000 0.512002 4.220235 2.974418 0.000000 0.000000 0.000000 -4.382376 2.494174 83.944172 -0.000005 129.402401 0.000011 -0.000552 -5.590390 64.849593 -1.120888 -3.665704 -6.555846 8.244846 -30.620783 -3.274803 -5.098244 -8.587470 -15.375845 -0.000000 0.000000 0.000000 4.540618 -8.344325 48.387399 6.575537 -4.244502 114.349080 1.886314 -3.744685 53.459781 0.000001 -0.000000 0.000001 2.375480 -6.542197 44.640207 7.222613 -3.888184 123.454795 1.885855 -3.744346 53.452664 0.000004 0.000001 -0.000001 2.745570 -6.923871 44.442299 7.225012 -3.886586 123.490312 1.886183 -3.744587 53.457811 0.000002 -0.000000 0.000001 -10.268022 -14.528487 47.436292 6.314154 -4.353043 110.862897 1.885496 -3.744061 53.447186 0.000004 0.000001 -0.000001 -4.541590 20.151831 16.194283 3.883842 1.061400 1.472437 22.920441 29.858462 -26.188393 -2.210853 -0.000026 0.000003 -0.000000 0.000001 -0.000000 -6.913317 -19.556346 -18.705532 5.089852 -4.727027 -3.864562 32.969142 -30.551163 31.732000 -5.352586 0.000015 -0.000034 0.000001 -0.000002 0.000000 
0.373706 111.312157 4.620911 -90.685098 -2.002181 1.526488 0.644804 -0.185311 -0.596604 0.775535 0.010199 -0.441929 0.000000 0.000000 0.000000 0.799318 0.002338 -0.423854 -4.701088 4.246301 -8.217697 5.074996 8.483806 -14.697201 0.000000 0.000000 0.000000 0.821163 -6.021018 -3.761135 0.000000 0.000000 0.000000 44.049498 -39.813009 -34.639052 0.000080 -83.307134 0.000073 -22.981575 -8.387159 7.124576 -1.945764 1.585338 13.204800 8.601848 21.114949 -0.258286 -4.250525 28.326760 20.005262 -0.000006 0.000002 0.000002 0.776306 5.158035 -28.512492 0.566017 2.514181 -25.370929 0.306470 1.871740 -18.596433 0.000000 -0.000001 0.000001 0.776306 5.158039 -28.512486 0.566020 2.514178 -25.370934 0.084757 0.994022 -9.747970 0.000002 -0.000001 -0.000001 0.776306 5.158035 -28.512490 0.351473 2.000425 -19.928004 0.131452 1.235362 -12.147803 0.000001 -0.000000 -0.000002 0.776307 5.158030 -28.512490 0.064895 0.870539 -8.527012 0.131457 1.235371 -12.147806 0.000001 0.000003 0.000001 0.506634 4.242360 2.977800 0.000000 0.000000 0.000000 -4.368379 2.476201 83.932834 0.000038 129.413507 -0.000031 -0.003259 -5.593559 64.841950 -1.120888 -3.665704 -6.555850 8.244848 -30.620780 -3.274804 -5.098245 -8.587473 -15.375849 0.000003 -0.000000 -0.000001 4.540611 -8.344326 48.387399 6.575534 -4.244500 114.349080 1.886316 -3.744682 53.459785 -0.000004 -0.000001 -0.000000 2.375479 -6.542193 44.640207 7.222609 -3.888185 123.454795 1.885850 -3.744347 53.452664 0.000004 0.000000 0.000000 2.745572 -6.923870 44.442292 7.225013 -3.886587 123.490312 1.886184 -3.744585 53.457811 -0.000001 0.000001 -0.000001 -10.268024 -14.528485 47.436292 6.314155 -4.353042 110.862897 1.885495 -3.744058 53.447190 0.000006 0.000000 -0.000001 -4.538638 20.154295 16.195524 3.890757 1.067490 1.473464 22.914351 29.855737 -26.183382 -2.262174 0.000009 -0.000002 -0.000000 0.000003 -0.000000 -6.901679 -19.556949 -18.707927 5.089212 -4.734891 -3.862711 32.969470 -30.551825 31.740043 -5.318773 -0.000008 -0.000012 -0.000000 -0.000000 0.000000 
0.378800 111.311050 4.623581 -90.692802 -1.997629 1.523308 0.645058 -0.185593 -0.588048 0.783313 0.010056 -0.442169 0.000000 0.000000 0.000000 0.801158 0.001820 -0.423847 -4.737148 4.281859 -8.205620 5.647819 8.498318 -15.023530 -0.000000 0.000001 -0.000000 0.816278 -6.034781 -3.754557 0.000000 0.000000 0.000000 44.044895 -39.812353 -34.650171 0.000199 -83.304163 0.000201 -22.980137 -8.404222 7.133043 -1.945767 1.585339 13.204799 8.601848 21.114946 -0.258284 -4.250531 28.326760 20.005264 -0.000002 0.000001 -0.000001 0.776306 5.158030 -28.512490 0.566017 2.514179 -25.370936 0.306470 1.871744 -18.596433 0.000003 0.000003 -0.000004 0.776306 5.158035 -28.512486 0.566016 2.514179 -25.370932 0.084758 0.994020 -9.747967 0.000003 -0.000002 -0.000001 0.776306 5.158030 -28.512490 0.351476 2.000424 -19.928006 0.131448 1.235363 -12.147803 -0.000001 0.000000 0.000002 0.776303 5.158027 -28.512495 0.064898 0.870540 -8.527012 0.131458 1.235371 -12.147806 0.000002 -0.000001 0.000000 0.501665 4.258665 2.981408 0.000000 0.000000 0.000000 -4.356465 2.463910 83.921844 0.000038 129.421921 -0.000031 -0.006370 -5.596643 64.834184 -1.120896 -3.665706 -6.555846 8.244844 -30.620780 -3.274806 -5.098246 -8.587476 -15.375854 0.000003 0.000001 0.000002 4.540613 -8.344329 48.387393 6.575532 -4.244502 114.349074 1.886311 -3.744686 53.459781 -0.000001 0.000000 -0.000000 2.375481 -6.542196 44.640207 7.222612 -3.888184 123.454795 1.885855 -3.744345 53.452661 -0.000001 0.000001 -0.000001 2.745571 -6.923872 44.442296 7.225005 -3.886587 123.490312 1.886181 -3.744588 53.457811 0.000000 0.000001 -0.000002 -10.268027 -14.528489 47.436292 6.314156 -4.353042 110.862904 1.885495 -3.744059 53.447190 0.000004 0.000000 -0.000000 -4.535601 20.156324 16.196820 3.899687 1.071880 1.474932 22.907877 29.851793 -26.182763 -2.313755 -0.000006 -0.000006 -0.000000 -0.000002 -0.000000 -6.890708 -19.557355 -18.710863 5.090631 -4.744771 -3.860537 32.969169 -30.552515 31.749144 -5.285194 0.000006 -0.000001 0.000000 -0.000001 -0.000000 
0.384161 111.310371 4.626495 -90.699755 -1.993092 1.520104 0.645252 -0.185788 -0.578884 0.790639 0.010041 -0.442317 0.000000 0.000000 0.000000 0.802097 0.001533 -0.423875 -4.785001 4.319759 -8.193457 6.265796 8.513244 -15.381156 -0.000000 0.000001 -0.000000 0.814094 -6.042072 -3.750279 0.000000 0.000000 0.000000 44.046322 -39.816216 -34.649259 -0.000050 -83.299382 -0.000052 -22.982828 -8.421624 7.140848 -1.945769 1.585339 13.204802 8.601848 21.114942 -0.258280 -4.250533 28.326760 20.005257 0.000001 -0.000000 -0.000001 0.776304 5.158030 -28.512490 0.566015 2.514182 -25.370932 0.306465 1.871747 -18.596433 -0.000001 -0.000002 -0.000001 0.776305 5.158033 -28.512490 0.566018 2.514181 -25.370937 0.084762 0.994019 -9.747973 -0.000001 0.000001 0.000000 0.776304 5.158030 -28.512490 0.351475 2.000422 -19.928006 0.131452 1.235366 -12.147803 0.000001 -0.000000 -0.000000 0.776300 5.158027 -28.512486 0.064898 0.870541 -8.527012 0.131456 1.235373 -12.147805 0.000000 0.000001 -0.000001 0.495734 4.266199 2.985394 0.000000 0.000000 0.000000 -4.348700 2.459905 83.910288 -0.000009 129.426484 0.000006 -0.009915 -5.599742 64.826616 -1.120891 -3.665704 -6.555849 8.244849 -30.620783 -3.274806 -5.098243 -8.587477 -15.375849 -0.000001 -0.000002 -0.000001 4.540612 -8.344327 48.387399 6.575534 -4.244500 114.349074 1.886317 -3.744686 53.459781 -0.000003 0.000000 0.000001 2.375477 -6.542196 44.640207 7.222609 -3.888184 123.454795 1.885850 -3.744346 53.452661 0.000003 -0.000001 0.000000 2.745570 -6.923869 44.442296 7.225013 -3.886586 123.490312 1.886187 -3.744586 53.457811 -0.000000 0.000001 0.000001 -10.268027 -14.528487 47.436292 6.314153 -4.353042 110.862897 1.885498 -3.744058 53.447190 0.000003 -0.000000 -0.000001 -4.539506 20.156774 16.193335 3.905086 1.033572 1.477829 22.914040 29.843422 -26.185661 -2.364388 -0.000004 -0.000004 -0.000000 -0.000002 0.000000 -6.886828 -19.556317 -18.710921 5.093241 -4.730723 -3.860384 32.978950 -30.552427 31.752965 -5.250955 -0.000017 -0.000030 0.000001 -0.000000 -0.000000 
